<?xml version="1.0" encoding="utf-8"?>
<!-- Generator: Adobe Illustrator 21.1.0, SVG Export Plug-In . SVG Version: 6.00 Build 0)  -->
<svg version="1.1" id="Layer_1" xmlns="http://www.w3.org/2000/svg" xmlns:xlink="http://www.w3.org/1999/xlink" x="0px" y="0px"
	 viewBox="0 0 64 64" style="enable-background:new 0 0 64 64;" xml:space="preserve">
<style type="text/css">
	.st0{fill:#FFFFFF;}
	.st1{fill:#ACBDC5;}
	.st2{fill-rule:evenodd;clip-rule:evenodd;fill:#314A52;}
	.st3{fill-rule:evenodd;clip-rule:evenodd;fill:#597380;}
</style>
<g id="Tic-Tac-Toe">
	<path class="st0" d="M6,12c0-4.4,3.6-8,8-8h38c4.4,0,8,3.6,8,8v36c0,5.5-4.5,10-10,10H16c-5.5,0-10-4.5-10-10V12z"/>
	<path class="st1" d="M8,12c0-2.2,1.8-4,4-4h10V4H12c-4.4,0-8,3.6-8,8v40c0,4.4,3.6,8,8,8h40c4.4,0,8-3.6,8-8V32.2V32
		c0,0.1,0,0.1,0,0.2C60,43.1,44.5,52,25.3,52C15.8,52,8,49.3,8,46v0h0V12z"/>
	<path class="st2" d="M24,24v16h16V24H24z M20,20V4h4v16h16V4h4v16h16v4H44v16h16v4H44v16h-4V44H24v16h-4V44H4v-4h16V24H4v-4H20z"/>
	<path class="st3" d="M52,6c-3.3,0-6,2.7-6,6c0,3.3,2.7,6,6,6c3.3,0,6-2.7,6-6C58,8.7,55.3,6,52,6z M50,12c0-1.1,0.9-2,2-2
		c1.1,0,2,0.9,2,2c0,1.1-0.9,2-2,2C50.9,14,50,13.1,50,12z M28.8,26l3.2,3.2l3.2-3.2l2.8,2.8L34.8,32l3.2,3.2L35.2,38L32,34.8
		L28.8,38L26,35.2l3.2-3.2L26,28.8L28.8,26z"/>
</g>
</svg>
